<?xml version="1.0" encoding="UTF-8" standalone="no"?><!DOCTYPE svg PUBLIC "-//W3C//DTD SVG 1.1//EN" "http://www.w3.org/Graphics/SVG/1.1/DTD/svg11.dtd"><svg width="100%" height="100%" viewBox="0 0 2262 563" version="1.1" xmlns="http://www.w3.org/2000/svg" xmlns:xlink="http://www.w3.org/1999/xlink" xml:space="preserve" xmlns:serif="http://www.serif.com/" style="fill-rule:evenodd;clip-rule:evenodd;stroke-linejoin:round;stroke-miterlimit:2;"><rect id="Artboard1" x="0" y="0.384" width="2261.25" height="562.37" style="fill:none;"/><g id="Artboard11" serif:id="Artboard1"><path d="M401.392,67.886l-25.788,0l-307.822,307.352l25.788,-0l307.822,-307.352Z" style="fill:#bf3131;"/><path d="M440.663,67.886l-25.788,0l-307.822,307.352l25.788,-0l307.822,-307.352Z" style="fill:#bf3131;"/><path d="M480.369,67.886l-25.788,0l-307.822,307.352l25.788,-0l307.822,-307.352Z" style="fill:#bf3131;"/><path d="M557.803,67.886l-65.276,0l-307.822,307.352l65.277,-0l307.821,-307.352Z" style="fill:#bf3131;"/><rect x="1100.52" y="221.282" width="83.866" height="23.95" style="fill:#bf3131;"/><path d="M1243.94,223.366l32.224,51.239l63.41,0l-0,-51.239l-95.634,-0Z" style="fill:#bf3131;"/><path d="M1230.25,67.744l35.532,52.066l69.917,-0l0,-52.066l-105.449,0Z" style="fill:#bf3131;"/><path d="M1333.65,274.605c57.016,0 103.237,-46.22 103.237,-103.236c-0,-57.016 -46.221,-103.236 -103.237,-103.236l0,51.618c28.508,-0 51.618,23.11 51.618,51.618c0,28.508 -23.11,51.618 -51.618,51.618l0,51.618Z" style="fill:#bf3131;"/><path d="M1924,171.645c0,-57.016 -46.22,-103.236 -103.236,-103.236c-57.016,-0 -103.236,46.22 -103.236,103.236l51.618,0c-0,-28.508 23.11,-51.618 51.618,-51.618c28.508,0 51.618,23.11 51.618,51.618l51.618,0Z" style="fill:#bf3131;"/><path d="M1717.53,271.86c-0,57.015 46.22,103.236 103.236,103.236c57.016,-0 103.236,-46.221 103.236,-103.236l-51.618,-0c0,28.507 -23.11,51.618 -51.618,51.618c-28.508,-0 -51.618,-23.111 -51.618,-51.618l-51.618,-0Z" style="fill:#bf3131;"/><rect x="1717.53" y="169.089" width="51.446" height="106.599" style="fill:#bf3131;"/><rect x="505.996" y="119.751" width="51.446" height="255.069" style="fill:#bf3131;"/><rect x="595.292" y="67.468" width="61.907" height="307.628" style="fill:#bf3131;"/><path d="M595.321,323.65l-0,51.446l208.72,-0l0,-51.446l-208.72,-0Z" style="fill:#bf3131;"/><rect x="841.999" y="67.468" width="58.468" height="307.628" style="fill:#bf3131;"/><rect x="1229.84" y="67.468" width="51.446" height="307.628" style="fill:#bf3131;"/><path d="M1604.61,227.627l-51.446,0l75.294,147.469l51.446,-0l-75.294,-147.469Z" style="fill:#bf3131;"/><path d="M1473.42,222.949l35.658,51.651l70.167,0l-0,-51.651l-105.825,0Z" style="fill:#bf3131;"/><path d="M1473.44,67.744l35.532,52.066l69.917,-0l0,-52.066l-105.449,0Z" style="fill:#bf3131;"/><path d="M1576.84,274.605c57.016,0 103.236,-46.22 103.236,-103.236c0,-57.016 -46.22,-103.236 -103.236,-103.236l0,51.618c28.508,-0 51.618,23.11 51.618,51.618c0,28.508 -23.11,51.618 -51.618,51.618l0,51.618Z" style="fill:#bf3131;"/><rect x="1473.03" y="67.468" width="51.446" height="307.628" style="fill:#bf3131;"/><path d="M841.999,323.65l0,51.446l208.721,-0l-0,-51.446l-208.721,-0Z" style="fill:#bf3131;"/><path d="M548.249,221.562l-42.006,42.209l-128.979,0.31l42.006,-42.208l128.979,-0.311Z" style="fill:#bf3131;"/><path d="M557.442,67.468l-51.322,51.322l-0,99.031l51.322,-51.322l-0,-99.031Z" style="fill:#bf3131;"/><rect x="1872.41" y="170.2" width="51.591" height="104.102" style="fill:#bf3131;"/><g transform="matrix(96,0,0,96,1716.91,530.473)"></g><text x="511.663px" y="530.473px" style="font-family:'FuturaBT-Heavy', 'Futura', sans-serif;font-size:96px;fill:#fff;">R<tspan x="617.835px 748.475px 879.116px 978.866px 1056.35px 1162.52px 1265.32px 1361.93px 1478.37px 1556.98px 1663.15px " y="530.473px 530.473px 530.473px 530.473px 530.473px 530.473px 530.473px 530.473px 530.473px 530.473px 530.473px ">OOF REPAIRS</tspan></text><text x="2144.17px" y="120.062px" style="font-family:'Futura-CondensedLight', 'Futura', sans-serif;font-weight:300;font-stretch:condensed;font-size:96px;"><tspan x="2144.17px " y="120.062px ">™</tspan></text><path d="M1950.25,374.819l1.623,-74.681l-2.787,-232.252l40.327,51.865l28.772,-14.455l-16.052,93.501l42.187,-43.553l8.724,21.418l45.144,-8.219l-14.778,46.711l18.209,10.698l-72.296,60.128l10.501,28.34l-74.946,-13.644l3.663,74.143l-18.291,0Z" style="fill:#bf3131;"/></g></svg>