<?xml version="1.0" encoding="UTF-8" standalone="no"?><!DOCTYPE svg PUBLIC "-//W3C//DTD SVG 1.1//EN" "http://www.w3.org/Graphics/SVG/1.1/DTD/svg11.dtd"><svg width="100%" height="100%" viewBox="0 0 2262 617" version="1.1" xmlns="http://www.w3.org/2000/svg" xmlns:xlink="http://www.w3.org/1999/xlink" xml:space="preserve" xmlns:serif="http://www.serif.com/" style="fill-rule:evenodd;clip-rule:evenodd;stroke-linejoin:round;stroke-miterlimit:2;"><rect id="Artboard1" x="0" y="0.384" width="2261.25" height="615.664" style="fill:none;"/><g id="Artboard11" serif:id="Artboard1"><path d="M401.392,67.886l-25.788,0l-307.822,307.352l25.788,-0l307.822,-307.352Z" style="fill:#bf3131;"/><path d="M440.663,67.886l-25.788,0l-307.822,307.352l25.788,-0l307.822,-307.352Z" style="fill:#bf3131;"/><path d="M480.369,67.886l-25.788,0l-307.822,307.352l25.788,-0l307.822,-307.352Z" style="fill:#bf3131;"/><path d="M557.803,67.886l-65.276,0l-307.822,307.352l65.277,-0l307.821,-307.352Z" style="fill:#bf3131;"/><rect x="1100.52" y="221.282" width="83.866" height="23.95" style="fill:#bf3131;"/><path d="M1243.94,223.366l32.224,51.239l63.41,0l-0,-51.239l-95.634,-0Z" style="fill:#bf3131;"/><path d="M1230.25,67.744l35.532,52.066l69.917,-0l0,-52.066l-105.449,0Z" style="fill:#bf3131;"/><path d="M1333.65,274.605c57.016,0 103.237,-46.22 103.237,-103.236c-0,-57.016 -46.221,-103.236 -103.237,-103.236l0,51.618c28.508,-0 51.618,23.11 51.618,51.618c0,28.508 -23.11,51.618 -51.618,51.618l0,51.618Z" style="fill:#bf3131;"/><path d="M1924,171.645c0,-57.016 -46.22,-103.236 -103.236,-103.236c-57.016,-0 -103.236,46.22 -103.236,103.236l51.618,0c-0,-28.508 23.11,-51.618 51.618,-51.618c28.508,0 51.618,23.11 51.618,51.618l51.618,0Z" style="fill:#bf3131;"/><path d="M1717.53,271.86c-0,57.015 46.22,103.236 103.236,103.236c57.016,-0 103.236,-46.221 103.236,-103.236l-51.618,-0c0,28.507 -23.11,51.618 -51.618,51.618c-28.508,-0 -51.618,-23.111 -51.618,-51.618l-51.618,-0Z" style="fill:#bf3131;"/><rect x="1717.53" y="169.089" width="51.446" height="106.599" style="fill:#bf3131;"/><rect x="505.996" y="119.751" width="51.446" height="255.069" style="fill:#bf3131;"/><rect x="595.292" y="67.468" width="61.907" height="307.628" style="fill:#bf3131;"/><path d="M595.321,323.65l-0,51.446l208.72,-0l0,-51.446l-208.72,-0Z" style="fill:#bf3131;"/><rect x="841.999" y="67.468" width="58.468" height="307.628" style="fill:#bf3131;"/><rect x="1229.84" y="67.468" width="51.446" height="307.628" style="fill:#bf3131;"/><path d="M1604.61,227.627l-51.446,0l75.294,147.469l51.446,-0l-75.294,-147.469Z" style="fill:#bf3131;"/><path d="M1473.42,222.949l35.658,51.651l70.167,0l-0,-51.651l-105.825,0Z" style="fill:#bf3131;"/><path d="M1473.44,67.744l35.532,52.066l69.917,-0l0,-52.066l-105.449,0Z" style="fill:#bf3131;"/><path d="M1576.84,274.605c57.016,0 103.236,-46.22 103.236,-103.236c0,-57.016 -46.22,-103.236 -103.236,-103.236l0,51.618c28.508,-0 51.618,23.11 51.618,51.618c0,28.508 -23.11,51.618 -51.618,51.618l0,51.618Z" style="fill:#bf3131;"/><rect x="1473.03" y="67.468" width="51.446" height="307.628" style="fill:#bf3131;"/><path d="M841.999,323.65l0,51.446l208.721,-0l-0,-51.446l-208.721,-0Z" style="fill:#bf3131;"/><path d="M548.249,221.562l-42.006,42.209l-128.979,0.31l42.006,-42.208l128.979,-0.311Z" style="fill:#bf3131;"/><path d="M557.442,67.468l-51.322,51.322l-0,99.031l51.322,-51.322l-0,-99.031Z" style="fill:#bf3131;"/><rect x="1872.41" y="170.2" width="51.591" height="104.102" style="fill:#bf3131;"/><g transform="matrix(96,0,0,96,2204.37,384.972)"></g><text x="2065.12px" y="384.972px" style="font-family:'FuturaBT-BoldCondensed', 'Futura', sans-serif;font-stretch:condensed;font-size:96px;fill:#fff;">L<tspan x="2105.75px 2152.71px " y="384.972px 384.972px ">TD</tspan></text><g transform="matrix(96,0,0,96,1985.09,524.248)"></g><text x="280.665px" y="524.248px" style="font-family:'Futura-CondensedExtraBold', 'Futura', sans-serif;font-weight:800;font-stretch:condensed;font-size:96px;fill:#fff;">4<tspan x="386.415px 492.165px 569.04px 671.368px 764.04px 869.837px 975.774px 1052.65px 1145.32px 1249.43px 1352.27px 1444.95px 1550.88px 1628.56px 1734.35px 1844.09px 1940.41px " y="524.248px 524.248px 524.248px 524.248px 524.248px 524.248px 524.248px 524.248px 524.248px 524.248px 524.248px 524.248px 524.248px 524.248px 524.248px 524.248px 524.248px ">0 YEAR EXPERIANCE</tspan></text><text x="2197.32px" y="120.062px" style="font-family:'Futura-CondensedLight', 'Futura', sans-serif;font-weight:300;font-stretch:condensed;font-size:96px;fill:#fff;"><tspan x="2197.32px " y="120.062px ">™</tspan></text><path d="M1950.25,374.819l1.623,-74.681l-2.787,-232.252l40.327,51.865l28.772,-14.455l-16.052,93.501l42.187,-43.553l8.724,21.418l45.144,-8.219l-14.778,46.711l18.209,10.698l-72.296,60.128l10.501,28.34l-74.946,-13.644l3.663,74.143l-18.291,0Z" style="fill:#bf3131;"/><g><path d="M2077.32,448.762l91.936,47.114l-0,39.465l-91.936,-47.113l0,-39.466Z" style="fill:#7a0d0d;"/><path d="M2169.25,495.854l-68.592,21.505l0,39.465l68.592,-21.504l-0,-39.466Z" style="fill:#bf3131;"/><path d="M2146.99,423.204l-69.673,21.843l0,39.466l69.673,-21.844l-0,-39.465Z" style="fill:#bf3131;"/><path d="M2146.99,442.906l39.404,-33.549l-39.404,13.847l-0,19.702Zm39.404,5.856l-39.404,-5.856l-0,19.702l39.404,-13.846Z" style="fill:#bf3131;"/><path d="M2100.66,537.153l-39.404,33.549l39.404,-13.847l0,-19.702Zm-39.404,-5.856l39.404,5.856l0,-19.702l-39.404,13.846Z" style="fill:#bf3131;"/></g><g><path d="M183.935,448.762l-91.935,47.114l-0,39.465l91.935,-47.113l0,-39.466Z" style="fill:#7a0d0d;"/><path d="M92,495.854l68.591,21.505l0,39.465l-68.591,-21.504l-0,-39.466Z" style="fill:#bf3131;"/><path d="M114.263,423.204l69.672,21.843l0,39.466l-69.672,-21.844l-0,-39.465Z" style="fill:#bf3131;"/><path d="M114.263,442.906l-39.405,-33.549l39.405,13.847l-0,19.702Zm-39.405,5.856l39.405,-5.856l-0,19.702l-39.405,-13.846Z" style="fill:#bf3131;"/><path d="M160.591,537.153l39.405,33.549l-39.405,-13.847l0,-19.702Zm39.405,-5.856l-39.405,5.856l0,-19.702l39.405,13.846Z" style="fill:#bf3131;"/></g></g></svg>