<?xml version="1.0" encoding="UTF-8" standalone="no"?><!DOCTYPE svg PUBLIC "-//W3C//DTD SVG 1.1//EN" "http://www.w3.org/Graphics/SVG/1.1/DTD/svg11.dtd"><svg width="100%" height="100%" viewBox="0 0 512 512" version="1.1" xmlns="http://www.w3.org/2000/svg" xmlns:xlink="http://www.w3.org/1999/xlink" xml:space="preserve" xmlns:serif="http://www.serif.com/" style="fill-rule:evenodd;clip-rule:evenodd;stroke-linejoin:round;stroke-miterlimit:2;"><rect id="favicon" x="0" y="0" width="512" height="512" style="fill:none;"/><g id="favicon1" serif:id="favicon"><g><path d="M343.999,103.573l-25.613,-0l-305.737,305.27l25.613,-0l305.737,-305.27Z" style="fill:#bf3131;"/><path d="M383.004,103.573l-25.613,-0l-305.737,305.27l25.613,-0l305.737,-305.27Z" style="fill:#bf3131;"/><path d="M422.441,103.573l-25.613,-0l-305.737,305.27l25.613,-0l305.737,-305.27Z" style="fill:#bf3131;"/><path d="M499.351,103.573l-64.834,-0l-305.737,305.27l64.834,-0l305.737,-305.27Z" style="fill:#bf3131;"/><rect x="447.895" y="155.086" width="51.097" height="253.342" style="fill:#bf3131;"/><path d="M489.862,256.208l-41.722,41.922l-128.105,0.309l41.721,-41.923l128.106,-0.308Z" style="fill:#bf3131;"/><path d="M498.992,103.157l-50.974,50.975l-0,98.36l50.974,-50.975l0,-98.36Z" style="fill:#bf3131;"/></g></g></svg>